<?xml version="1.0" encoding="iso-8859-1"?>
<!-- Generator: Adobe Illustrator 19.0.0, SVG Export Plug-In . SVG Version: 6.00 Build 0)  -->
<svg version="1.1" id="Capa_1" xmlns="http://www.w3.org/2000/svg" xmlns:xlink="http://www.w3.org/1999/xlink" x="0px" y="0px"
	 viewBox="0 0 512 512" style="enable-background:new 0 0 512 512;" xml:space="preserve">
<g>
	<g>
		<path d="M421,329.69h-37.912c-3.684-10.499-8.597-20.634-14.837-30H421c33.091,0,60-26.909,60-60
			c0-21.489-11.763-41.206-30.117-51.855C442.27-57.907,73.201-67.253,61.22,187.776C42.807,198.41,31,218.156,31,239.69
			c0,33.091,26.909,60,60,60h52.747c-6.279,9.415-11.197,19.572-14.85,30H91c-41.353,0-75,33.647-75,75V497c0,8.291,6.709,15,15,15
			h450c8.291,0,15-6.709,15-15v-92.31C496,363.337,462.353,329.69,421,329.69z M361,407.077c-32.461-18.105-68.73-27.173-105-27.173
			c-36.27,0-72.539,9.067-105,27.173V374.69c0-9.463,1.099-17.944,3.442-26.353c2.373-9.448,6.182-18.633,11.221-27.173
			c23.292,23.362,55.703,38.525,90.337,38.525c34.044,0,67.265-15.389,90.322-38.525c5.068,8.584,8.906,17.871,11.338,27.583
			c2.241,7.998,3.34,16.479,3.34,25.942V407.077z M361,209.69c0,65.88-46.889,120-105,120c-56.754,0-105-52.519-105-120v-75
			c0-59.071,48.099-105,105-105c57.063-0.246,105,46.427,105,105V209.69z"/>
	</g>
</g>
<g>
	<g>
		<circle cx="211" cy="149.69" r="15"/>
	</g>
</g>
<g>
	<g>
		<circle cx="301" cy="149.69" r="15"/>
	</g>
</g>
<g>
	<g>
		<path d="M266.488,274.187c-5.39-5.699-15.6-5.699-20.991,0c-3.003,2.695-4.497,6.592-4.497,10.503
			c0,3.896,1.494,7.793,4.497,10.488c2.695,3.003,6.592,4.512,10.503,4.512c3.896,0,7.793-1.509,10.488-4.512
			c3.003-2.695,4.512-6.592,4.512-10.488C271,280.779,269.491,276.882,266.488,274.187z"/>
	</g>
</g>
<g>
	<g>
		<path d="M311.283,246.31c-7.412-17.483-22.487-29.793-40.283-34.398V179.69c0-8.291-6.709-15-15-15c-8.291,0-15,6.709-15,15
			v32.223c-17.807,4.605-32.882,16.926-40.283,34.412c-7.725,18.293,19.887,29.888,27.627,11.689
			c4.717-11.133,15.571-18.325,27.656-18.325s22.939,7.192,27.656,18.34C291.439,276.315,319.076,264.681,311.283,246.31z"/>
	</g>
</g>
<g>
</g>
<g>
</g>
<g>
</g>
<g>
</g>
<g>
</g>
<g>
</g>
<g>
</g>
<g>
</g>
<g>
</g>
<g>
</g>
<g>
</g>
<g>
</g>
<g>
</g>
<g>
</g>
<g>
</g>
</svg>
